<svg xmlns="http://www.w3.org/2000/svg" xmlns:xlink="http://www.w3.org/1999/xlink" width="100" zoomAndPan="magnify" viewBox="0 0 375 374.999991" height="100" preserveAspectRatio="xMidYMid meet" version="1.0"><defs><clipPath id="id1"><path d="M 124.667969 93.425781 L 242.40625 93.425781 L 242.40625 192 L 124.667969 192 Z M 124.667969 93.425781 " clip-rule="nonzero"/></clipPath><clipPath id="id2"><path d="M 124.667969 175 L 242.40625 175 L 242.40625 230.675781 L 124.667969 230.675781 Z M 124.667969 175 " clip-rule="nonzero"/></clipPath><clipPath id="id3"><path d="M 124.667969 153 L 242.40625 153 L 242.40625 209 L 124.667969 209 Z M 124.667969 153 " clip-rule="nonzero"/></clipPath><clipPath id="id4"><path d="M 124.667969 132 L 242.40625 132 L 242.40625 188 L 124.667969 188 Z M 124.667969 132 " clip-rule="nonzero"/></clipPath></defs><g clip-path="url(#id1)"><path fill="#03818f" d="M 124.65625 191.929688 L 124.65625 174.917969 C 124.65625 171.75 126.339844 168.824219 129.070312 167.242188 L 179.121094 138.210938 C 181.851562 136.625 185.214844 136.625 187.945312 138.210938 L 237.996094 167.242188 C 240.726562 168.828125 242.40625 171.75 242.40625 174.917969 L 242.40625 191.929688 C 242.40625 188.765625 240.726562 185.835938 237.996094 184.253906 L 187.945312 155.21875 C 185.214844 153.636719 181.851562 153.636719 179.121094 155.21875 L 129.070312 184.25 C 126.339844 185.835938 124.65625 188.765625 124.65625 191.929688 Z M 129.070312 162.707031 L 179.121094 133.675781 C 181.851562 132.089844 185.214844 132.089844 187.945312 133.675781 L 237.996094 162.707031 C 240.726562 164.292969 242.40625 167.214844 242.40625 170.382812 L 242.40625 153.371094 C 242.40625 150.203125 240.726562 147.277344 237.996094 145.695312 L 187.945312 116.660156 C 185.214844 115.078125 181.851562 115.078125 179.121094 116.660156 L 129.070312 145.695312 C 126.339844 147.277344 124.65625 150.203125 124.65625 153.371094 L 124.65625 170.382812 C 124.65625 167.21875 126.339844 164.292969 129.070312 162.707031 Z M 129.070312 141.164062 L 179.121094 112.132812 C 181.851562 110.546875 185.214844 110.546875 187.945312 112.132812 L 237.996094 141.164062 C 240.726562 142.75 242.40625 145.671875 242.40625 148.839844 L 242.40625 131.828125 C 242.40625 128.660156 240.726562 125.734375 237.996094 124.152344 L 187.945312 95.117188 C 185.214844 93.53125 181.851562 93.53125 179.121094 95.117188 L 129.070312 124.148438 C 126.339844 125.734375 124.65625 128.65625 124.65625 131.824219 L 124.65625 148.835938 C 124.65625 145.671875 126.339844 142.746094 129.070312 141.164062 Z M 129.070312 141.164062 " fill-opacity="1" fill-rule="nonzero"/></g><g clip-path="url(#id2)"><path fill="#0db3c6" d="M 237.996094 182.976562 L 187.945312 212.007812 C 185.214844 213.59375 181.851562 213.59375 179.121094 212.007812 L 129.066406 182.976562 C 126.339844 181.394531 124.65625 178.464844 124.65625 175.300781 L 124.65625 192.3125 C 124.65625 195.480469 126.339844 198.40625 129.066406 199.988281 L 179.121094 229.019531 C 181.851562 230.605469 185.210938 230.605469 187.941406 229.019531 L 237.996094 199.988281 C 240.726562 198.402344 242.40625 195.480469 242.40625 192.3125 L 242.40625 175.300781 C 242.410156 178.464844 240.726562 181.394531 237.996094 182.976562 Z M 237.996094 182.976562 " fill-opacity="1" fill-rule="nonzero"/></g><g clip-path="url(#id3)"><path fill="#0db3c6" d="M 237.996094 161.429688 L 187.945312 190.460938 C 185.214844 192.046875 181.851562 192.046875 179.121094 190.460938 L 129.066406 161.429688 C 126.339844 159.847656 124.65625 156.921875 124.65625 153.753906 L 124.65625 170.765625 C 124.65625 173.933594 126.339844 176.859375 129.066406 178.441406 L 179.121094 207.476562 C 181.851562 209.058594 185.210938 209.058594 187.941406 207.476562 L 237.996094 178.441406 C 240.726562 176.859375 242.40625 173.933594 242.40625 170.765625 L 242.40625 153.753906 C 242.410156 156.921875 240.726562 159.847656 237.996094 161.429688 Z M 237.996094 161.429688 " fill-opacity="1" fill-rule="nonzero"/></g><g clip-path="url(#id4)"><path fill="#0db3c6" d="M 237.996094 139.886719 L 187.945312 168.917969 C 185.214844 170.5 181.851562 170.5 179.121094 168.917969 L 129.066406 139.886719 C 126.339844 138.304688 124.65625 135.375 124.65625 132.207031 L 124.65625 149.222656 C 124.65625 152.386719 126.339844 155.316406 129.066406 156.898438 L 179.121094 185.929688 C 181.851562 187.515625 185.210938 187.515625 187.941406 185.929688 L 237.996094 156.898438 C 240.726562 155.3125 242.40625 152.386719 242.40625 149.222656 L 242.40625 132.207031 C 242.410156 135.375 240.726562 138.304688 237.996094 139.886719 Z M 237.996094 139.886719 " fill-opacity="1" fill-rule="nonzero"/></g></svg>